#!OML:ASF H:\ManfredObstacles\Project 1\Capture day 2\Session 1\male.ASF
:FULLY-SPECIFIED
:DEGREES
573
root 2.17265 15.275 -24.9619 -164.337 5.29585 -177.199
lowerback 7.89609 0.0206496 -0.768733
upperback 2.42107 0.231209 2.52767
thorax -1.93549 0.197862 3.01926
lowerneck -28.4439 2.98355 4.09681
upperneck 31.0363 5.31371 -4.89131
head 16.099 2.25594 -1.56462
rclavicle 2.33572e-014 -4.07509e-014
rhumerus -41.5273 17.2675 -96.6957
rradius 90.8882
rwrist 11.0985
rhand -19.4201 -1.24943
rfingers 7.12502
rthumb 6.89961 -31.117
lclavicle 2.33572e-014 -4.07509e-014
lhumerus -53.4304 -20.4028 95.1386
lradius 91.6738
lwrist -27.0797
lhand -17.455 5.91274
lfingers 7.12502
lthumb 8.79628 35.7094
rfemur -22.3595 6.35708 25.7823
rtibia 47.5791
rfoot -9.34919 -17.443
rtoes -37.2252
lfemur -30.924 2.17314 -16.8923
ltibia 92.1684
lfoot 13.7627 15.3458
ltoes -3.31159
574
root 2.19 15.28 -25.22 -164.554 5.30385 -177.252
lowerback 7.77584 0.316208 -0.778717
upperback 2.33727 0.609194 2.39282
thorax -1.97618 0.382667 2.84931
lowerneck -28.6078 2.75703 3.99476
upperneck 31.2387 4.99437 -4.74277
head 16.2035 2.13806 -1.55319
rclavicle 2.21645e-014 -6.36111e-015
rhumerus -39.9296 18.0725 -97.2586
rradius 91.6353
rwrist 11.862
rhand -19.1533 -1.12786
rfingers 7.12502
rthumb 7.15715 -30.9868
lclavicle 2.21645e-014 -6.36111e-015
lhumerus -54.662 -20.1777 95.3173
lradius 91.587
lwrist -25.9789
lhand -17.2315 6.23119
lfingers 7.12502
lthumb 9.01193 36.0187
rfemur -20.6031 6.44722 25.8293
rtibia 46.6682
rfoot -8.87287 -17.4502
rtoes -37.6811
lfemur -32.9043 2.1882 -16.7663
ltibia 92.9517
lfoot 12.736 16.1567
ltoes -3.43947
575
root 2.20731 15.2947 -25.4821 -164.647 5.20242 -177.254
lowerback 7.56654 0.58846 -0.715709
upperback 2.22048 0.960108 2.27053
thorax -1.99729 0.552941 2.65505
lowerneck -28.8179 2.50038 3.86857
upperneck 31.4961 4.62363 -4.53663
head 16.341 2.00562 -1.52425
rclavicle -1.23246e-014 -2.18663e-015
rhumerus -38.4777 18.8863 -97.7368
rradius 92.4167
rwrist 12.4468
rhand -18.9022 -0.992408
rfingers 7.12502
rthumb 7.39957 -30.843
lclavicle -1.23246e-014 -2.18663e-015
lhumerus -55.9393 -20.0351 95.4649
lradius 91.6904
lwrist -24.8333
lhand -17.0829 6.30644
lfingers 7.12502
lthumb 9.1553 36.0877
rfemur -18.8833 6.54539 25.9644
rtibia 45.5585
rfoot -8.13652 -17.3905
rtoes -37.9704
lfemur -34.9741 2.09002 -16.5806
ltibia 93.3681
lfoot 11.7914 16.9212
ltoes -3.57312
576
root 2.22491 15.3186 -25.7462 -164.61 4.97171 -177.218
lowerback 7.30097 0.831223 -0.607385
upperback 2.04437 1.27265 2.15995
thorax -2.04325 0.70302 2.45267
lowerneck -29.035 2.21464 3.73213
upperneck 31.8008 4.19958 -4.27555
head 16.5009 1.86116 -1.48154
rclavicle 1.19271e-014 -5.96354e-015
rhumerus -37.2199 19.7075 -98.1479
rradius 93.242
rwrist 12.7723
rhand -18.6963 -0.851349
rfingers 7.12502
rthumb 7.59828 -30.6949
lclavicle 1.19271e-014 -5.96354e-015
lhumerus -57.2569 -19.9756 95.5776
lradius 91.9404
lwrist -23.8751
lhand -17.0306 6.20554
lfingers 7.12502
lthumb 9.20585 35.9846
rfemur -17.2277 6.6325 26.174
rtibia 44.2524
rfoot -7.11093 -17.2119
rtoes -38.1345
lfemur -37.1505 1.86582 -16.3425
ltibia 93.4168
lfoot 10.9757 17.6189
ltoes -3.78315
577
root 2.24103 15.3525 -26.0193 -164.544 4.76819 -177.132
lowerback 7.00553 1.10099 -0.46254
upperback 1.86521 1.62378 2.04582
thorax -2.07356 0.872054 2.22484
lowerneck -29.3117 1.89689 3.57012
upperneck 32.1522 3.71725 -3.95529
head 16.6959 1.70021 -1.42154
rclavicle 9.54166e-015 7.15625e-015
rhumerus -36.1664 20.5008 -98.4775
rradius 94.1218
rwrist 12.8731
rhand -18.5811 -0.703303
rfingers 7.12502
rthumb 7.70952 -30.5428
lclavicle 9.54166e-015 7.15625e-015
lhumerus -58.5694 -20.0423 95.677
lradius 92.2864
lwrist -23.1723
lhand -17.0961 6.01903
lfingers 7.12502
lthumb 9.14264 35.8009
rfemur -15.5072 6.80069 26.4261
rtibia 42.7456
rfoot -5.80918 -16.8586
rtoes -38.2223
lfemur -39.1891 1.65452 -16.089
ltibia 93.0485
lfoot 10.3004 18.2795
ltoes -4.05207
578
root 2.25329 15.3972 -26.3078 -164.515 4.7078 -176.991
lowerback 6.67708 1.42445 -0.287347
upperback 1.70683 2.04836 1.91324
thorax -2.06155 1.07749 1.95799
lowerneck -29.5947 1.55537 3.39768
upperneck 32.5595 3.18868 -3.57496
head 16.9222 1.53328 -1.34319
rclavicle 4.50247e-014 -5.96354e-016
rhumerus -35.3544 21.255 -98.7609
rradius 95.0595
rwrist 12.742
rhand -18.5256 -0.550929
rfingers 7.12502
rthumb 7.76307 -30.3884
lclavicle 4.50247e-014 -5.96354e-016
lhumerus -59.8801 -20.2015 95.7471
lradius 92.7049
lwrist -22.8593
lhand -17.236 5.84148
lfingers 7.12502
lthumb 9.00765 35.6292
rfemur -13.6433 7.07866 26.6807
rtibia 41.041
rfoot -4.27201 -16.264
rtoes -38.3114
lfemur -40.9147 1.54337 -15.8631
ltibia 92.2362
lfoot 9.71111 18.9918
ltoes -4.33061
579
root 2.2632 15.4518 -26.6054 -164.456 4.66728 -176.857
lowerback 6.31984 1.77421 -0.114692
upperback 1.54177 2.50634 1.76462
thorax -2.03581 1.29922 1.67756
lowerneck -29.893 1.17722 3.18156
upperneck 32.9924 2.60747 -3.14159
head 17.1685 1.35182 -1.24485
rclavicle 1.02374e-014 1.2921e-014
rhumerus -34.7555 21.9141 -98.9545
rradius 96.048
rwrist 12.51
rhand -18.4996 -0.398204
rfingers 7.12502
rthumb 7.78813 -30.2348
lclavicle 1.02374e-014 1.2921e-014
lhumerus -61.1475 -20.4621 95.8092
lradius 93.1804
lwrist -22.9109
lhand -17.3787 5.70208
lfingers 7.12502
lthumb 8.8699 35.4957
rfemur -11.759 7.36155 26.9056
rtibia 39.1749
rfoot -2.50222 -15.4521
rtoes -38.4211
lfemur -42.482 1.40721 -15.6881
ltibia 91.0155
lfoot 9.24874 19.7247
ltoes -4.65899
580
root 2.27029 15.5163 -26.9122 -164.368 4.65731 -176.75
lowerback 5.93954 2.14049 0.0309435
upperback 1.35588 2.98249 1.59417
thorax -2.0137 1.52952 1.39298
lowerneck -30.2113 1.96525 2.2368
upperneck 33.5212 1.45473 -2.1074
head 17.4538 0.164753 -1.12496
rclavicle 2.41523e-014 9.54166e-015
rhumerus -34.3989 22.4813 -99.098
rradius 97.0767
rwrist 12.2307
rhand -18.4585 -0.27109
rfingers 7.12502
rthumb 7.82783 -30.1062
lclavicle 2.41523e-014 9.54166e-015
lhumerus -62.4006 -20.7788 95.861
lradius 93.7116
lwrist -23.1512
lhand -17.5321 5.58018
lfingers 7.12502
lthumb 8.72191 35.38
rfemur -9.89643 7.63961 27.07
rtibia 37.1928
rfoot -0.576666 -14.4443
rtoes -38.5311
lfemur -43.8776 1.24153 -15.5826
ltibia 89.3918
lfoot 8.89319 20.4846
ltoes -4.94971
581
root 2.27589 15.5885 -27.2233 -164.155 4.54907 -176.708
lowerback 5.47162 2.48071 0.139708
upperback 1.12604 3.41831 1.40091
thorax -1.98217 1.73887 1.11604
lowerneck -30.481 1.59798 1.95085
upperneck 33.9118 0.797333 -1.59088
head 17.6963 -0.0627401 -1.00319
rclavicle 1.21259e-014 2.96189e-014
rhumerus -34.2341 22.9562 -99.1858
rradius 98.1202
rwrist 11.9308
rhand -18.3786 -0.184338
rfingers 7.12502
rthumb 7.90496 -30.0165
lclavicle 1.21259e-014 2.96189e-014
lhumerus -63.6167 -21.1437 95.9003
lradius 94.2954
lwrist -23.3932
lhand -17.6508 5.42529
lfingers 7.12502
lthumb 8.60734 35.2298
rfemur -8.20092 7.81042 27.1635
rtibia 35.148
rfoot 1.54415 -13.3131
rtoes -38.5405
lfemur -45.2702 0.93601 -15.539
ltibia 87.4093
lfoot 8.66163 21.2279
ltoes -5.21232
582
root 2.28057 15.6674 -27.5379 -163.856 4.32141 -176.737
lowerback 4.96676 2.77 0.192838
upperback 0.859923 3.78227 1.18868
thorax -1.96349 1.91237 0.861361
lowerneck -30.7799 1.24964 1.70757
upperneck 34.2775 0.155112 -1.10149
head 17.9449 -0.278981 -0.89652
rclavicle 4.25399e-014 2.14687e-014
rhumerus -34.2358 23.3729 -99.2407
rradius 99.1309
rwrist 11.6638
rhand -18.2547 -0.109309
rfingers 7.12502
rthumb 8.02455 -29.937
lclavicle 4.25399e-014 2.14687e-014
lhumerus -64.7989 -21.5007 95.9055
lradius 94.9332
lwrist -23.5289
lhand -17.7133 5.20097
lfingers 7.12502
lthumb 8.54704 35.008
rfemur -6.64167 7.84362 27.1931
rtibia 33.0563
rfoot 3.83857 -12.1562
rtoes -38.5062
lfemur -46.6032 0.487723 -15.545
ltibia 85.0742
lfoot 8.5029 21.9292
ltoes -5.42213
583
root 2.28456 15.7509 -27.8576 -163.538 4.0216 -176.813
lowerback 4.45057 3.01047 0.195053
upperback 0.59503 4.08033 0.962585
thorax -1.93526 2.054 0.629931
lowerneck -31.0962 0.934485 1.51965
upperneck 34.601 -0.452126 -0.644334
head 18.1864 -0.474664 -0.804565
rclavicle -4.48259e-014 6.75868e-015
rhumerus -34.3757 23.7709 -99.2778
rradius 100.097
rwrist 11.422
rhand -18.1018 -0.0324786
rfingers 7.12502
rthumb 8.17204 -29.8544
lclavicle -4.48259e-014 6.75868e-015
lhumerus -65.9439 -21.8193 95.8653
lradius 95.6142
lwrist -23.4499
lhand -17.7604 4.87587
lfingers 7.12502
lthumb 8.50153 34.6847
rfemur -5.11608 7.77847 27.1824
rtibia 30.8985
rfoot 6.38329 -11.0436
rtoes -38.4124
lfemur -47.7585 -0.0319757 -15.5749
ltibia 82.397
lfoot 8.3654 22.5444
ltoes -5.63004
584
root 2.28843 15.8383 -28.1815 -163.228 3.66331 -176.947
lowerback 3.95606 3.18924 0.118745
upperback 0.338757 4.29555 0.727044
thorax -1.91203 2.15582 0.43964
lowerneck -31.4356 0.678484 1.43118
upperneck 34.8848 -0.99141 -0.25884
head 18.4209 -0.63715 -0.745785
rclavicle 9.98893e-015 -4.37326e-015
rhumerus -34.6284 24.1961 -99.3192
rradius 100.986
rwrist 11.1951
rhand -17.9257 0.0348122
rfingers 7.12502
rthumb 8.342 -29.7805
lclavicle 9.98893e-015 -4.37326e-015
lhumerus -67.0519 -22.0531 95.7637
lradius 96.3295
lwrist -23.2321
lhand -17.781 4.47931
lfingers 7.12502
lthumb 8.4817 34.289
rfemur -3.56379 7.64657 27.1268
rtibia 28.6201
rfoot 9.25016 -10.0217
rtoes -38.2947
lfemur -48.6956 -0.595196 -15.6415
ltibia 79.386
lfoot 8.23846 22.9885
ltoes -5.77003
585
root 2.29109 15.9279 -28.5139 -163.011 3.35656 -177.136
lowerback 3.49998 3.33572 -0.047991
upperback 0.0955411 4.4677 0.480089
thorax -1.9012 2.23797 0.290402
lowerneck -31.6629 0.482257 1.42119
upperneck 35.1226 -1.46032 0.0630021
head 18.6091 -0.771638 -0.712623
rclavicle -1.44616e-014 -8.34896e-015
rhumerus -35.0683 24.6527 -99.4031
rradius 101.793
rwrist 11.0057
rhand -17.7551 0.106414
rfingers 7.12502
rthumb 8.50671 -29.7022
lclavicle -1.44616e-014 -8.34896e-015
lhumerus -68.2064 -22.1908 95.6483
lradius 97.0703
lwrist -22.8865
lhand -17.7925 4.05303
lfingers 7.12502
lthumb 8.47055 33.8632
rfemur -1.85952 7.5285 26.997
rtibia 26.1987
rfoot 12.4317 -9.09255
rtoes -38.1031
lfemur -49.2575 -1.12205 -15.7834
ltibia 76.0532
lfoot 8.07063 23.2472
ltoes -5.84077
586
root 2.291 16.0184 -28.8588 -162.944 3.23735 -177.358
lowerback 3.04817 3.48818 -0.31066
upperback -0.0300019 4.64994 0.234691
thorax -1.77915 2.32783 0.201458
lowerneck -31.9825 0.342649 1.47113
upperneck 35.335 -1.83158 0.297864
head 18.8088 -0.868391 -0.706466
rclavicle -2.8128e-014 1.77912e-014
rhumerus -35.5173 25.1969 -99.4411
rradius 102.502
rwrist 10.8275
rhand -17.5993 0.168853
rfingers 7.12502
rthumb 8.65706 -29.6336
lclavicle -2.8128e-014 1.77912e-014
lhumerus -69.2292 -22.2275 95.4954
lradius 97.7911
lwrist -22.5242
lhand -17.8271 3.66119
lfingers 7.12502
lthumb 8.43715 33.4727
rfemur 0.0577852 7.51296 26.7683
rtibia 23.6796
rfoot 15.8574 -8.23759
rtoes -37.7579
lfemur -49.3345 -1.51771 -16.024
ltibia 72.4311
lfoot 7.84237 23.3065
ltoes -5.85426
